<svg width="15" height="15" viewBox="0 0 15 15" fill="none" xmlns="http://www.w3.org/2000/svg">
<path d="M7.74765 3.6179C5.76015 3.6179 4.15703 5.22103 4.15703 7.20853C4.15703 9.19603 5.76015 10.7992 7.74765 10.7992C9.73515 10.7992 11.3383 9.19603 11.3383 7.20853C11.3383 5.22103 9.73515 3.6179 7.74765 3.6179ZM7.74765 9.54291C6.46328 9.54291 5.41328 8.49603 5.41328 7.20853C5.41328 5.92103 6.46015 4.87415 7.74765 4.87415C9.03515 4.87415 10.082 5.92103 10.082 7.20853C10.082 8.49603 9.03202 9.54291 7.74765 9.54291ZM12.3226 3.47102C12.3226 3.93665 11.9476 4.30853 11.4851 4.30853C11.0195 4.30853 10.6476 3.93352 10.6476 3.47102C10.6476 3.00852 11.0226 2.63352 11.4851 2.63352C11.9476 2.63352 12.3226 3.00852 12.3226 3.47102ZM14.7008 4.32102C14.6476 3.19915 14.3914 2.2054 13.5695 1.38665C12.7508 0.567896 11.757 0.311646 10.6351 0.255396C9.4789 0.18977 6.01328 0.18977 4.85703 0.255396C3.73828 0.308521 2.74453 0.564771 1.92266 1.38352C1.10078 2.20227 0.847656 3.19602 0.791406 4.3179C0.725781 5.47415 0.725781 8.93978 0.791406 10.096C0.844531 11.2179 1.10078 12.2117 1.92266 13.0304C2.74453 13.8492 3.73515 14.1054 4.85703 14.1617C6.01328 14.2273 9.4789 14.2273 10.6351 14.1617C11.757 14.1085 12.7508 13.8523 13.5695 13.0304C14.3883 12.2117 14.6445 11.2179 14.7008 10.096C14.7664 8.93978 14.7664 5.47728 14.7008 4.32102ZM13.207 11.3367C12.9633 11.9492 12.4914 12.421 11.8758 12.6679C10.9539 13.0335 8.7664 12.9492 7.74765 12.9492C6.7289 12.9492 4.53828 13.0304 3.61953 12.6679C3.00703 12.4242 2.53515 11.9523 2.28828 11.3367C1.92266 10.4148 2.00703 8.22728 2.00703 7.20853C2.00703 6.18978 1.92578 3.99915 2.28828 3.0804C2.53203 2.4679 3.0039 1.99602 3.61953 1.74915C4.5414 1.38352 6.7289 1.4679 7.74765 1.4679C8.7664 1.4679 10.957 1.38665 11.8758 1.74915C12.4883 1.9929 12.9601 2.46477 13.207 3.0804C13.5726 4.00227 13.4883 6.18978 13.4883 7.20853C13.4883 8.22728 13.5726 10.4179 13.207 11.3367Z" fill="white"/>
</svg>
