<svg width="17" height="17" viewBox="0 0 17 17" fill="none" xmlns="http://www.w3.org/2000/svg">
<path d="M15.375 0.333496H1.87148C1.25273 0.333496 0.75 0.843262 0.75 1.46904V14.9479C0.75 15.5737 1.25273 16.0835 1.87148 16.0835H15.375C15.9937 16.0835 16.5 15.5737 16.5 14.9479V1.46904C16.5 0.843262 15.9937 0.333496 15.375 0.333496ZM5.51016 13.8335H3.17578V6.31709H5.51367V13.8335H5.51016ZM4.34297 5.29053C3.59414 5.29053 2.98945 4.68232 2.98945 3.93701C2.98945 3.1917 3.59414 2.5835 4.34297 2.5835C5.08828 2.5835 5.69648 3.1917 5.69648 3.93701C5.69648 4.68584 5.0918 5.29053 4.34297 5.29053ZM14.2605 13.8335H11.9262V10.1772C11.9262 9.30537 11.9086 8.18389 10.7133 8.18389C9.49687 8.18389 9.31055 9.13311 9.31055 10.114V13.8335H6.97617V6.31709H9.21562V7.34365H9.24727C9.56016 6.75303 10.323 6.13076 11.4586 6.13076C13.8211 6.13076 14.2605 7.68818 14.2605 9.71318V13.8335Z" fill="white"/>
</svg>
