<svg width="18" height="15" viewBox="0 0 18 15" fill="none" xmlns="http://www.w3.org/2000/svg">
<path d="M15.9705 3.69755C15.9815 3.85066 15.9815 4.00381 15.9815 4.15693C15.9815 8.82722 12.4268 14.2085 5.92989 14.2085C3.92832 14.2085 2.06895 13.6288 0.504883 12.6226C0.789268 12.6554 1.06268 12.6663 1.35801 12.6663C3.00954 12.6663 4.52988 12.1085 5.74395 11.1569C4.19082 11.1241 2.88925 10.1069 2.4408 8.70693C2.65957 8.73972 2.87831 8.76161 3.10802 8.76161C3.4252 8.76161 3.74241 8.71784 4.0377 8.64131C2.41895 8.31316 1.20485 6.8913 1.20485 5.17412V5.13038C1.67515 5.39288 2.22207 5.55694 2.80172 5.57879C1.85015 4.9444 1.22674 3.86161 1.22674 2.6366C1.22674 1.98036 1.40171 1.3788 1.70797 0.853792C3.44705 2.99754 6.06112 4.39752 8.99234 4.55067C8.93767 4.28817 8.90484 4.01476 8.90484 3.74131C8.90484 1.79442 10.4799 0.208496 12.4377 0.208496C13.4548 0.208496 14.3736 0.635058 15.0189 1.32412C15.8173 1.171 16.5829 0.875676 17.2611 0.470998C16.9986 1.29133 16.4408 1.98039 15.708 2.41786C16.4189 2.34134 17.108 2.14442 17.7423 1.87101C17.2612 2.57098 16.6596 3.19439 15.9705 3.69755Z" fill="white"/>
</svg>
