<svg width="149" height="21" viewBox="0 0 149 21" fill="none" xmlns="http://www.w3.org/2000/svg">
<path fillRule="evenodd" clipRule="evenodd" d="M74.0838 11.9991C74.0838 15.6869 71.4608 18.6475 68.1366 18.6475C66.5264 18.6475 64.9942 17.9203 64.3709 16.8815V18.3878H60.709V0.208496H64.3709V7.14261C64.9942 6.10379 66.5264 5.37662 68.1366 5.37662C71.4608 5.37662 74.0838 8.31128 74.0838 11.9991ZM58.5602 15.9726C57.6253 17.6606 55.4957 18.6475 52.8467 18.6475C49.107 18.6475 46.1463 15.7388 46.1463 11.9471C46.1463 8.23337 49.055 5.37662 52.7688 5.37662C56.2229 5.37662 58.9238 8.05157 58.9238 11.4537C58.9238 11.8952 58.8978 12.3886 58.8199 12.8821H49.6524C49.99 14.6221 51.1846 15.5311 52.9246 15.5311C54.0673 15.5311 55.262 15.0117 55.7035 14.2325L58.5602 15.9726ZM36.0246 11.4018L33.4276 18.3878H30.5968L26 5.63632H29.9215L32.0511 12.6224L34.5962 5.63632H37.453L40.024 12.6224L42.1277 5.63632H46.0752L41.4784 18.3878H38.5957L36.0246 11.4018ZM55.262 10.5447H49.7043C50.0419 9.1683 51.0548 8.33725 52.587 8.33725C53.9375 8.33725 55.1061 9.27219 55.262 10.5447ZM67.3315 15.1675C66.0589 15.1675 64.9162 14.4922 64.3709 13.5833V10.4668C64.9162 9.53189 66.0589 8.83069 67.3315 8.83069C69.1235 8.83069 70.4999 10.1812 70.4999 11.9991C70.4999 13.817 69.1235 15.1675 67.3315 15.1675ZM85.4781 14.4922C85.4781 16.9335 83.4005 18.6475 80.4398 18.6475C78.2583 18.6475 76.2586 18.1281 74.7263 17.0374L75.8171 14.4922C77.0117 15.3752 78.57 15.8427 80.1282 15.8427C81.2709 15.8427 81.9981 15.4012 81.9981 14.726C81.988 14.0029 80.9566 13.7769 79.6923 13.4999C77.6871 13.0605 75.0958 12.4927 75.064 9.6098C75.038 7.22052 77.1676 5.37662 80.1801 5.37662C81.9721 5.37662 83.7641 5.81811 85.0366 6.83096L83.9978 9.47995C83.0109 8.72681 81.4008 8.15546 80.0243 8.15546C79.0894 8.15546 78.4661 8.59695 78.4661 9.1683C78.4762 9.8885 79.5363 10.1729 80.8292 10.5197C82.8465 11.0609 85.4306 11.7542 85.4781 14.4922ZM93.3404 18.5956C94.0157 18.5956 94.7428 18.4657 95.2103 18.232L95.0285 14.9857C94.7428 15.0896 94.2494 15.1675 93.8858 15.1675C92.821 15.1675 91.9121 14.4143 91.9121 13.2197V9.11636H95.0545V5.63632H91.9121V2.28613H88.2502V5.63632H85.8869V9.11636H88.2502V13.4015C88.2502 16.6997 90.3538 18.5956 93.3404 18.5956ZM105.618 16.8815C104.994 17.9203 103.462 18.6475 101.852 18.6475C98.5278 18.6475 95.9048 15.6869 95.9048 11.9991C95.9048 8.31128 98.5278 5.37662 101.852 5.37662C103.462 5.37662 104.994 6.10379 105.618 7.14261V5.63632H109.28V18.3878H105.618V16.8815ZM102.657 15.1675C100.865 15.1675 99.4887 13.817 99.4887 11.9991C99.4887 10.1812 100.865 8.83069 102.657 8.83069C103.93 8.83069 105.072 9.53189 105.618 10.4668V13.5833C105.072 14.4922 103.93 15.1675 102.657 15.1675ZM123.764 14.9857C122.803 17.1932 120.492 18.6475 117.765 18.6475C113.948 18.6475 111.065 15.8167 111.065 12.0251C111.065 8.23337 113.948 5.37662 117.765 5.37662C120.258 5.37662 122.362 6.6232 123.375 8.51904L120.284 10.285C119.817 9.42801 118.882 8.88263 117.765 8.88263C115.947 8.88263 114.649 10.2331 114.649 12.0251C114.649 13.791 115.947 15.1415 117.765 15.1415C119.012 15.1415 120.025 14.5442 120.518 13.5313L123.764 14.9857ZM133.263 18.3878H137.963L132.25 11.7913L137.548 5.63632H133.055L128.64 10.9083V0.208496H124.978V18.3878H128.64V12.6743L133.263 18.3878ZM148.89 14.4922C148.89 16.9335 146.813 18.6475 143.852 18.6475C141.67 18.6475 139.671 18.1281 138.139 17.0374L139.229 14.4922C140.424 15.3752 141.982 15.8427 143.54 15.8427C144.683 15.8427 145.41 15.4012 145.41 14.726C145.4 14.0029 144.369 13.7769 143.104 13.4999C141.099 13.0605 138.508 12.4927 138.476 9.6098C138.45 7.22052 140.58 5.37662 143.592 5.37662C145.384 5.37662 147.176 5.81811 148.449 6.83096L147.41 9.47995C146.423 8.72681 144.813 8.15546 143.436 8.15546C142.502 8.15546 141.878 8.59695 141.878 9.1683C141.888 9.8885 142.948 10.1729 144.241 10.5197C146.259 11.0609 148.843 11.7542 148.89 14.4922Z" fill="white"/>
<path fillRule="evenodd" clipRule="evenodd" d="M11 0.208496H18V4.2085V16.2085V20.2085H14H11V16.2085H14V4.2085H11V0.208496Z" fill="#2885F6"/>
<path fillRule="evenodd" clipRule="evenodd" d="M7 0.208496H4H0V4.2085V16.2085V20.2085H4H7V16.2085H4V4.2085H7V0.208496Z" fill="#2885F6"/>
</svg>
