<svg width="16" height="16" viewBox="0 0 16 16" fill="none" xmlns="http://www.w3.org/2000/svg">
<path d="M13.7043 13.3149C10.782 16.2397 6.02367 16.2397 3.09885 13.3149C0.174082 10.3901 0.174082 5.63183 3.09885 2.70824C3.87281 1.93556 4.81635 1.34593 5.9015 0.961439C6.24334 0.841791 6.6218 0.928509 6.87562 1.18363C7.13203 1.43997 7.21869 1.81837 7.09787 2.15775C6.36299 4.2305 6.86349 6.47411 8.40158 8.01226C9.93726 9.54906 12.1809 10.0484 14.256 9.31597C14.5954 9.19515 14.975 9.28187 15.2302 9.53822C15.4866 9.79204 15.572 10.1717 15.4511 10.5123C15.069 11.5974 14.4782 12.541 13.7043 13.3149ZM4.42453 4.03392C2.2309 6.22755 2.2309 9.79685 4.42453 11.9893C6.76828 14.3342 10.76 14.123 12.8034 11.5107C10.6965 11.6425 8.62131 10.882 7.0759 9.33777C5.53049 7.79359 4.77123 5.71837 4.90301 3.61146C4.73515 3.74251 4.57537 3.88359 4.42453 4.03392Z" fill="white"/>
</svg>
