<svg width="18" height="18" viewBox="0 0 18 18" fill="none" xmlns="http://www.w3.org/2000/svg">
<path d="M9.40527 4.61475C6.87256 4.61475 4.81152 6.67578 4.81152 9.2085C4.81152 11.7412 6.87256 13.8022 9.40527 13.8022C11.938 13.8022 13.999 11.7412 13.999 9.2085C13.999 6.67578 11.938 4.61475 9.40527 4.61475ZM9.40527 12.4897C7.59288 12.4897 6.12402 11.0209 6.12402 9.2085C6.12402 7.3961 7.59288 5.92725 9.40527 5.92725C11.2177 5.92725 12.6865 7.3961 12.6865 9.2085C12.6865 11.0209 11.2177 12.4897 9.40527 12.4897ZM9.40527 3.30225C9.76756 3.30225 10.0615 3.00829 10.0615 2.646V1.3335C10.0615 0.971205 9.76756 0.677246 9.40527 0.677246C9.04298 0.677246 8.74902 0.971205 8.74902 1.3335V2.646C8.74902 3.00829 9.04298 3.30225 9.40527 3.30225ZM9.40527 15.1147C9.04298 15.1147 8.74902 15.4087 8.74902 15.771V17.0835C8.74902 17.4458 9.04298 17.7397 9.40527 17.7397C9.76756 17.7397 10.0615 17.4458 10.0615 17.0835V15.771C10.0615 15.4087 9.76756 15.1147 9.40527 15.1147ZM14.5092 5.03175L15.4372 4.10377C15.6935 3.84743 15.6935 3.43214 15.4372 3.17579C15.1808 2.91945 14.7655 2.91945 14.5092 3.17579L13.5812 4.10377C13.3248 4.36012 13.3248 4.7754 13.5812 5.03175C13.8375 5.2881 14.2528 5.2881 14.5092 5.03175ZM4.30137 13.3853L3.37339 14.3133C3.11704 14.5696 3.11704 14.9848 3.37339 15.2412C3.62974 15.4975 4.04502 15.4975 4.30137 15.2412L5.22935 14.3133C5.4857 14.0561 5.4857 13.6416 5.22935 13.3853C4.97304 13.1289 4.55772 13.128 4.30137 13.3853ZM3.49902 9.2085C3.49902 8.8462 3.20506 8.55225 2.84277 8.55225H1.53027C1.16798 8.55225 0.874023 8.8462 0.874023 9.2085C0.874023 9.57079 1.16798 9.86475 1.53027 9.86475H2.84277C3.20506 9.86475 3.49902 9.57079 3.49902 9.2085ZM17.2803 8.55225H15.9678C15.6055 8.55225 15.3115 8.8462 15.3115 9.2085C15.3115 9.57079 15.6055 9.86475 15.9678 9.86475H17.2803C17.6426 9.86475 17.9365 9.57079 17.9365 9.2085C17.9365 8.8462 17.6426 8.55225 17.2803 8.55225ZM4.30051 5.03175C4.5569 5.2881 4.97218 5.2881 5.22849 5.03175C5.48488 4.7754 5.48488 4.36012 5.22849 4.10377L4.30051 3.17579C4.04416 2.91945 3.62892 2.91945 3.37253 3.17579C3.11618 3.43214 3.11618 3.84743 3.37253 4.10377L4.30051 5.03175ZM14.51 13.3844C14.2528 13.128 13.8384 13.128 13.5821 13.3844C13.3257 13.6407 13.3249 14.056 13.5821 14.3124L14.51 15.2403C14.7663 15.4967 15.1816 15.4967 15.438 15.2403C15.6943 14.984 15.6943 14.5687 15.438 14.3124L14.51 13.3844Z" fill="#667085"/>
</svg>
