<svg width="16" height="16" viewBox="0 0 16 16" fill="none" xmlns="http://www.w3.org/2000/svg">
<path d="M8.25 0.458496C3.97662 0.458496 0.5 3.93512 0.5 8.2085C0.5 12.4819 3.97662 15.9585 8.25 15.9585C12.5234 15.9585 16 12.4819 16 8.2085C16 3.93512 12.5234 0.458496 8.25 0.458496ZM13.3741 4.03243C14.296 5.15887 14.8543 6.59359 14.8689 8.15603C14.6507 8.10987 12.4621 7.66597 10.2595 7.94297C10.0797 7.50418 9.91006 7.11818 9.67769 6.64253C12.1252 5.64325 13.2345 4.22121 13.3741 4.03243ZM12.6382 3.26693C12.5191 3.43653 11.5226 4.77587 9.16875 5.65815C8.084 3.66515 6.88172 2.0279 6.69875 1.7829C8.798 1.27687 11.0102 1.82259 12.6382 3.26693ZM5.43566 2.22787C5.61019 2.46721 6.79309 4.1065 7.88994 6.05628C4.79347 6.87856 2.06619 6.86671 1.77013 6.86281C2.19938 4.80865 3.58369 3.1014 5.43566 2.22787ZM1.63031 8.21859C1.63031 8.1509 1.63166 8.08353 1.63369 8.01631C1.92331 8.02225 5.13119 8.06359 8.437 7.07425C8.6265 7.44512 8.80753 7.82159 8.97369 8.19765C6.57997 8.87187 4.40513 10.8079 3.33209 12.6447C2.27481 11.4712 1.63031 9.91881 1.63031 8.21859ZM4.18678 13.4409C4.87825 12.0273 6.75484 10.2027 9.42362 9.29225C10.353 11.7073 10.7373 13.7314 10.8358 14.3122C8.70728 15.2188 6.14781 14.9701 4.18678 13.4409ZM11.9487 13.7062C11.8808 13.3035 11.5285 11.3656 10.6627 8.98637C12.737 8.65431 14.5595 9.19787 14.786 9.26934C14.4909 11.1112 13.4337 12.702 11.9487 13.7062Z" fill="white"/>
</svg>
